<svg class="main-svg" xmlns="http://www.w3.org/2000/svg" xmlns:xlink="http://www.w3.org/1999/xlink" width="800" height="600" style="" viewBox="0 0 800 600"><rect x="0" y="0" width="800" height="600" style="fill: rgb(255, 255, 255); fill-opacity: 1;"/><defs id="defs-7ca640"><g class="clips"><clipPath class="plotclip" id="clip7ca640xyplot"><rect width="562" height="420"/></clipPath><clipPath class="axesclip" id="clip7ca640x"><rect x="80" y="0" width="562" height="600"/></clipPath><clipPath class="axesclip" id="clip7ca640y"><rect x="0" y="100" width="800" height="420"/></clipPath><clipPath class="axesclip" id="clip7ca640xy"><rect x="80" y="100" width="562" height="420"/></clipPath></g><g class="gradients"/></defs><g class="bglayer"><rect class="bg" x="80" y="100" width="562" height="420" style="fill: rgb(255, 255, 255); fill-opacity: 1; stroke-width: 0;"/></g><g class="layer-below"><g class="imagelayer"/><g class="shapelayer"/></g><g class="cartesianlayer"><g class="subplot xy"><g class="layer-subplot"><g class="shapelayer"/><g class="imagelayer"/></g><g class="gridlayer" transform="translate(80,100)"><path class="xgrid crisp" d="M0,0v420" transform="translate(93.7,0)" style="stroke: rgb(238, 238, 238); stroke-opacity: 1; stroke-width: 1px;"/><path class="xgrid crisp" d="M0,0v420" transform="translate(187.4,0)" style="stroke: rgb(238, 238, 238); stroke-opacity: 1; stroke-width: 1px;"/><path class="xgrid crisp" d="M0,0v420" transform="translate(281.09,0)" style="stroke: rgb(238, 238, 238); stroke-opacity: 1; stroke-width: 1px;"/><path class="xgrid crisp" d="M0,0v420" transform="translate(374.79,0)" style="stroke: rgb(238, 238, 238); stroke-opacity: 1; stroke-width: 1px;"/><path class="xgrid crisp" d="M0,0v420" transform="translate(468.49,0)" style="stroke: rgb(238, 238, 238); stroke-opacity: 1; stroke-width: 1px;"/><path class="ygrid crisp" d="M0,0h562" transform="translate(0,364)" style="stroke: rgb(238, 238, 238); stroke-opacity: 1; stroke-width: 1px;"/><path class="ygrid crisp" d="M0,0h562" transform="translate(0,308)" style="stroke: rgb(238, 238, 238); stroke-opacity: 1; stroke-width: 1px;"/><path class="ygrid crisp" d="M0,0h562" transform="translate(0,252)" style="stroke: rgb(238, 238, 238); stroke-opacity: 1; stroke-width: 1px;"/><path class="ygrid crisp" d="M0,0h562" transform="translate(0,196)" style="stroke: rgb(238, 238, 238); stroke-opacity: 1; stroke-width: 1px;"/><path class="ygrid crisp" d="M0,0h562" transform="translate(0,140)" style="stroke: rgb(238, 238, 238); stroke-opacity: 1; stroke-width: 1px;"/><path class="ygrid crisp" d="M0,0h562" transform="translate(0,84)" style="stroke: rgb(238, 238, 238); stroke-opacity: 1; stroke-width: 1px;"/><path class="ygrid crisp" d="M0,0h562" transform="translate(0,28)" style="stroke: rgb(238, 238, 238); stroke-opacity: 1; stroke-width: 1px;"/></g><g class="overgrid"/><g class="zerolinelayer" transform="translate(80,100)"><path class="xzl zl crisp" d="M0,0v420" transform="translate(0,0)" style="stroke: rgb(68, 68, 68); stroke-opacity: 1; stroke-width: 1px;"/><path class="yzl zl crisp" d="M0,0h562" transform="translate(0,420)" style="stroke: rgb(68, 68, 68); stroke-opacity: 1; stroke-width: 1px;"/></g><g class="overzero"/><path class="xlines-below"/><path class="ylines-below"/><g class="overlines-below"/><g class="xaxislayer-below"/><g class="yaxislayer-below"/><g class="overaxes-below"/><g class="plot" transform="translate(80, 100)" clip-path="url(#clip7ca640xyplot)"><g class="imagelayer"/><g class="maplayer"/><g class="barlayer"/><g class="carpetlayer"/><g class="boxlayer"/><g class="scatterlayer"><g class="trace scatter trace17a29e" style="stroke-miterlimit: 2; opacity: 1;"><path class="js-line" d="M0,419.81L562,419.91" style="vector-effect: non-scaling-stroke; fill: none; stroke: rgb(31, 119, 180); stroke-opacity: 1; stroke-width: 2px; opacity: 1;"/><g class="points"/></g><g class="trace scatter trace84d8c3" style="stroke-miterlimit: 2; opacity: 1;"><path class="js-line" d="M0,-346.18L1.12,-482.71L3.19,-293.06L5.81,-374.24L6,-312.34L6.75,-201.28L9.56,-431.58L11.81,-280.56L11.99,-277.25L12.18,-348.97L15.74,-203.14L16.12,-254.78L16.3,-202.4L17.8,-177.79L17.99,-295.27L20.05,-218.47L20.24,-174.2L20.43,-291.93L23.24,-138.98L23.99,-176.52L24.17,-107.37L26.42,-216.54L27.55,-170.92L27.73,-119.02L28.67,-64.58L30.17,-165.33L30.36,-160.67L30.55,-110.25L30.92,-164.83L31.3,-86.26L32.79,-124.75L32.98,-101.39L33.54,-71.06L34.29,-205.83L35.42,-108.98L35.61,-101.99L37.29,-70.6L37.85,-140.18L38.04,-67.25L38.6,-88.52L38.79,-78.67L38.98,-14.94L39.92,-123.55L40.85,-75.57L41.04,-39.19L42.16,-73.48L42.35,-61.71L42.54,-32.01L43.1,-7.58L43.66,-80.88L44.04,-51.68L44.23,-12.21L44.97,-95.88L45.54,-76.98L45.72,-23.77L46.29,-44.07L46.47,-36.33L46.66,-9.72L47.97,-67.09L48.16,-39.07L48.35,-20.86L48.72,12.91L48.91,12.17L49.1,-49.54L49.29,3.85L49.85,-19.56L50.03,0.65L50.22,11.83L50.6,-14.73L50.78,6.75L52.1,-64.57L52.28,-18.7L52.66,14.49L53.03,-10.75L53.22,-6.81L53.41,43.32L53.97,35.2L54.16,27.73L54.34,41.22L54.53,-18.29L54.72,14.64L54.91,72.07L55.47,-65.69L55.66,-50.3L55.84,0.93L56.59,31.44L56.78,8.61L56.97,6.94L57.16,47.8L57.34,-50.54L57.91,8.92L58.09,5.45L59.4,49.64L59.59,11.55L59.78,42.15L60.34,27.58L60.53,-0.46L61.47,31.14L61.65,27.2L61.84,-19.06L62.22,41.84L62.4,81.12L62.59,46.13L62.96,99.66L63.15,81.14L64.09,7.84L64.28,21.13L64.65,70.66L65.03,46.33L65.21,47.75L65.59,66.5L65.78,-16.98L66.15,73.87L66.71,63.09L66.9,68.63L67.28,66.77L67.46,49.28L67.84,44.91L68.02,61.96L68.21,64L68.4,27.06L68.96,100.04L69.15,80.81L69.34,37.88L70.46,101.48L70.65,99.04L71.21,63.24L71.4,84.97L71.59,89.35L71.96,104.26L72.15,82.66L72.33,78.11L72.71,117.29L73.08,101.75L73.27,100.63L73.65,99.67L73.83,104.98L74.02,118.47L74.21,59.05L74.96,87.55L75.15,104.77L75.52,93.08L75.71,94.11L75.9,117.82L76.46,122.06L76.64,63.01L76.83,104.99L77.02,110.87L77.21,109.6L77.39,72.48L78.33,127.47L78.52,110.63L78.71,113.54L79.27,104.66L79.46,141.76L79.64,124.82L79.83,93.25L80.39,158.02L80.95,156.45L81.14,119.37L81.52,113.53L82.08,145.13L82.27,124.43L82.64,104.59L82.83,105.63L83.02,127.27L83.39,144.4L83.58,114.04L83.77,128.27L84.14,173.57L84.52,143.4L84.7,136.54L84.89,181.36L85.45,161.42L85.64,164.82L85.83,167.43L86.01,152.28L86.39,132.18L86.58,134.55L86.76,159.87L87.14,132.79L87.33,144.59L87.51,171.9L88.45,143.15L88.64,148.58L88.83,149.08L89.01,153.76L89.39,147.36L89.76,180.5L89.95,165.77L90.14,135.26L90.51,115.31L90.7,156.22L90.89,140.65L91.07,143.39L91.26,172.99L91.82,166.53L92.01,172.32L92.2,177.14L92.39,159.12L92.95,150.66L93.32,179.5L93.51,182.59L94.07,148.78L94.26,184.7L94.63,180.76L94.82,174.28L95.01,179.13L95.2,210.66L96.13,158.47L96.32,184.42L96.51,191.87L96.7,177.7L96.88,182.29L97.07,182.39L97.26,199.86L97.82,188.29L98.01,194.49L98.2,193.53L98.38,183.84L99.32,215.79L99.51,195.37L99.69,195.43L99.88,181.17L100.26,195.29L100.44,214.24L101.19,174.74L101.38,177.44L101.57,184.08L101.76,183.9L101.94,209.43L102.51,199.55L102.69,203.72L102.88,216.6L104.19,189.77L104.38,203.15L105.13,228.13L105.32,198.91L105.5,224.21L106.07,213.19L106.25,223.13L106.44,228.33L106.63,216.41L106.82,215.91L107,226.39L107.19,204.67L107.38,210.47L107.57,215.62L107.75,213.51L107.94,219.47L108.13,214.01L108.31,193.11L108.88,230.64L109.25,218.86L109.44,220.89L109.63,244.49L110.19,240.83L110.38,237.37L110.56,243.78L110.75,215.83L111.13,258.82L111.5,232.2L111.69,194.01L112.81,239.86L113,229.43L113.19,228.73L113.37,247.99L113.56,202.6L114.12,230.43L114.31,229.01L115.62,249.62L115.81,232.01L116,246.57L116.56,239.96L116.75,226.78L117.68,242.02L117.87,240.33L118.06,219.19L118.43,247.35L118.62,265.72L118.81,249.6L119.18,274.05L119.37,266.04L120.31,232.61L120.5,238.67L120.87,261.61L121.25,250.29L121.43,251.18L121.81,260.02L121.99,222.03L122.37,263.56L122.93,258.98L123.12,261.47L123.49,260.96L123.68,252.93L124.06,250.9L124.24,258.59L124.43,259.76L124.62,242.92L125.18,276.41L125.37,267.56L125.56,248.13L126.68,277.71L126.87,276.56L127.43,260.86L127.62,270.81L127.8,272.79L128.18,279.21L128.37,269.73L128.55,267.53L128.93,285.55L129.3,278.81L129.49,278.54L129.87,277.9L130.05,280.39L130.24,286.34L130.43,259.87L131.18,272.6L131.36,280.69L131.55,275.75L131.93,276.15L132.11,286.84L132.68,288.99L132.86,262.97L133.05,280.91L133.24,284.1L133.43,283.36L133.61,267.2L134.55,291.66L134.74,284.42L134.92,286.27L135.11,290.27L135.3,281.96L135.49,282.31L135.67,298.82L136.05,277.35L136.24,283.6L136.42,290.65L136.61,306.19L136.8,290.23L137.17,305.47L137.36,289.38L137.74,286.73L138.3,300.91L138.49,291.89L138.86,283.3L139.05,283.89L139.24,293.29L139.61,300.92L139.8,287.81L139.98,294.22L140.36,313.91L140.73,301L140.92,297.9L141.11,317.44L141.67,308.83L141.86,310.48L142.05,311.49L142.23,305.12L142.61,296.45L142.8,297.5L142.98,308.73L143.36,296.86L143.55,302.05L143.73,314L144.67,301.96L144.86,304.15L145.23,306.62L145.42,311.76L145.61,303.76L145.98,318.29L146.17,311.93L146.73,290.89L146.92,308.43L147.11,301.81L147.29,302.88L147.48,315.52L147.86,311.41L148.23,315.43L148.42,317.66L149.17,306.59L149.35,311.24L149.73,320.17L150.1,319.96L150.29,305.78L150.48,321.33L151.04,316.8L151.23,318.89L151.42,332.66L151.79,313.65L151.98,315.63L152.35,310.8L152.73,325.11L152.91,319.07L153.48,328.58L153.66,325.39L153.85,322.83L154.23,326.57L154.41,326.19L154.6,322.11L155.54,335.59L155.73,327.13L155.91,327.24L156.1,321.47L156.48,327.43L156.66,335.31L157.41,319.2L157.6,320.26L157.79,322.91L157.97,323.04L158.16,333.7L158.72,329.41L158.91,331.46L159.1,336.91L160.41,326.04L160.6,331.57L161.35,342.27L161.54,330.27L161.72,340.64L162.28,336.11L162.47,340.44L162.66,342.49L162.85,337.53L163.03,337.47L163.22,341.98L163.41,333.11L163.6,335.6L163.78,337.4L163.97,336.73L164.16,339.36L164.53,328.51L164.72,337.76L165.1,343.97L165.28,343.18L165.47,339.2L165.66,340.13L165.85,349.76L166.22,340.17L166.59,346.92L166.78,349.58L166.97,338.19L167.34,356.05L167.53,340.91L167.72,345.15L167.91,329.53L168.47,343.46L168.66,346.28L168.84,346.38L169.03,348.28L169.59,351.86L169.78,333.87L169.97,347.44L170.16,350.5L170.53,344.65L170.72,346.91L170.9,345.37L171.28,347.65L171.47,352L171.65,352.01L171.84,352.87L172.03,345.83L172.59,350.77L172.78,349.31L172.97,343.88L173.53,345.43L173.72,346.4L173.9,350.33L174.09,349.72L174.28,341.43L175.4,363.25L175.59,360.4L175.78,355.65L176.53,347.26L176.71,349.6L177.09,358.79L177.46,354.19L177.65,354.68L178.03,358.31L178.21,343.47L178.59,359.78L179.15,358.16L179.34,359.1L179.71,359.11L179.9,355.91L180.09,354.88L180.27,355.05L180.46,357.98L180.65,358.59L180.84,351.96L181.4,365.22L181.59,361.67L181.77,354.12L182.9,366.06L183.09,365.57L183.65,359.76L183.84,363.7L184.02,364.44L184.4,366.69L184.58,363.19L184.77,362.22L185.15,369.41L185.71,367L185.9,366.71L186.08,366.58L186.27,367.59L186.46,369.8L186.65,359.73L187.58,367.88L187.96,366.21L188.15,366.25L188.89,371.35L189.08,361.61L189.46,369.5L189.83,363.16L190.02,365.56L190.21,364.45L190.39,367.94L190.77,372.4L191.33,372.07L191.52,368.88L191.71,369.3L191.89,375.59L192.27,367.43L192.64,372.49L192.83,378.44L193.58,372.21L193.77,374.27L193.95,371.13L194.33,374.88L194.52,376.61L195.08,370.08L195.27,370.38L195.45,373.83L195.83,376.73L196.02,371.95L196.2,374.44L196.58,381.68L196.95,377.03L197.14,375.8L197.33,383.03L197.89,379.86L198.08,380.56L198.26,380.84L198.45,378.62L198.83,375.43L199.01,375.83L199.2,380.11L199.58,375.64L199.76,377.58L199.95,382.05L200.89,377.82L201.08,378.51L201.45,379.55L201.64,381.49L201.83,378.41L202.2,383.86L202.39,381.52L202.95,374.24L203.14,380.59L203.32,378.21L203.51,378.51L203.7,383.06L203.89,381.5L204.26,382.22L204.45,383.11L204.64,384.02L204.82,381.1L205.39,380.12L205.76,384.54L205.95,384.97L206.51,379.75L206.7,385.51L207.07,385.05L207.26,383.78L207.45,384.54L207.63,389.73L208.57,382L208.76,386.08L208.95,387.21L209.13,385.01L209.32,385.69L209.51,385.97L209.7,388.47L210.26,386.69L210.45,387.88L210.63,387.74L210.82,386.28L211.76,391.05L211.94,388.11L212.13,388.19L212.32,386.27L212.69,388.38L212.88,391.14L213.26,385.5L213.82,385.98L214.01,386.81L214.19,386.98L214.38,390.73L214.94,389.08L215.13,390L215.32,391.95L216.63,388.25L216.82,390.16L217.57,394.08L217.75,389.94L218.69,393.53L218.88,394.17L219.63,391.11L219.82,392.03L220,392.44L220.19,392.33L220.38,393.34L220.75,389.55L220.94,392.87L221.31,394.9L221.5,394.53L221.69,393.27L221.88,393.64L222.06,396.93L222.44,393.6L222.81,395.96L223,396.9L223.19,392.99L223.56,399.3L223.75,393.96L223.94,395.52L224.13,390.12L224.69,394.83L224.87,395.97L225.25,396.54L225.44,395.25L225.62,395.16L225.81,397.9L226,392.02L226.56,395.79L226.75,395.7L228.06,398.36L228.25,396L228.44,398.19L229,397.32L229.19,395.4L230.12,397.72L230.31,397.55L230.5,394.87L230.87,398.59L231.06,401.16L231.25,399.01L231.62,402.06L231.81,401.31L232.75,396.99L232.93,397.72L233.31,400.8L233.68,399.19L233.87,399.43L234.24,400.69L234.43,395.88L234.81,401.19L235.37,400.75L235.56,401.03L235.93,401.14L236.12,400.06L236.31,399.52L236.68,400.62L236.87,400.9L237.06,398.7L237.43,399.45L237.62,403.1L237.99,399.44L238.18,400.14L238.37,402.97L238.55,401.67L238.93,403.24L239.12,403.52L239.87,401.59L240.05,402.91L240.62,403.69L240.8,402.66L240.99,402.27L241.18,403.82L241.37,404.7L241.93,404.08L242.12,403.92L242.49,404.18L242.68,404.82L242.86,401.67L243.43,402.21L243.61,403.12L244.55,405.18L244.74,404.23L244.93,404.31L245.11,405.55L245.3,402.57L245.86,404.74L246.05,402.99L247.55,405.83L247.74,404.8L247.92,405.09L248.11,407.08L248.49,404.49L248.86,406.08L249.05,407.97L249.8,406.07L249.99,406.72L250.17,405.67L250.55,406.82L250.74,407.44L251.3,405.45L251.49,405.58L251.67,406.59L252.05,407.51L252.23,406.09L252.42,406.91L252.8,409.07L253.17,407.71L253.36,407.29L253.55,409.48L254.11,408.51L254.3,408.78L254.67,408.19L254.86,407.38L255.23,407.34L255.42,408.71L255.8,407.29L255.98,407.9L256.17,409.28L257.11,408.09L257.29,408.23L257.48,408.37L257.86,409.21L258.04,408.2L258.42,409.9L258.61,409.18L258.79,407.87L259.17,407.21L259.36,409.08L259.54,408.38L259.73,408.41L260.67,409.78L260.85,410.1L261.6,408.98L261.79,409.52L262.54,410.35L262.73,408.8L262.92,410.58L263.48,410L263.67,410.23L263.85,411.88L264.23,410L264.42,410.01L264.79,409.65L265.17,411.21L265.35,410.54L265.91,411.57L266.1,411.08L266.29,410.82L267.98,412.33L268.16,411.5L268.91,411.66L269.1,412.43L269.48,410.79L270.04,411.01L270.22,411.19L270.41,411.3L270.6,412.37L271.16,411.81L271.35,412.17L271.54,412.75L272.85,411.72L273.04,412.25L273.22,412.57L273.79,413.45L273.97,412.29L274.91,413.32L275.1,413.46L275.85,412.68L276.03,412.96L276.22,412.97L276.78,413.06L276.97,412.24L277.53,413.73L277.91,413.28L278.1,413.4L278.28,414.31L278.84,414.18L279.03,414.03L279.22,414.3L279.41,413.21L279.78,415.05L280.16,413.97L280.34,412.44L281.47,414.21L281.66,413.9L281.84,413.88L282.03,414.65L282.22,413.14L282.78,414.15L282.97,414.15L284.28,414.8L284.47,414.17L284.65,414.82L285.22,414.59L285.4,414.02L286.34,414.71L286.53,414.68L286.72,414L287.09,414.98L287.28,415.7L288.4,414.64L288.59,415.18L289.15,414.79L289.34,415.37L290.46,415.61L290.65,414.38L291.59,415.66L291.78,415.72L293.65,415.37L293.84,416.28L294.21,415.31L294.4,415.51L294.59,416.27L294.77,415.85L295.15,416.35L295.34,416.44L297.21,416.11L297.4,416.51L298.33,416.61L298.52,416.57L298.9,416.8L299.08,416.03L300.77,416.95L300.96,416.7L302.08,416.83L302.27,416.45L303.77,417.15L303.96,416.89L305.27,417.73L305.46,417.31L306.2,417.45L306.39,417.17L306.58,417.23L306.95,417.62L307.33,417.26L307.52,417.15L310.89,417.85L311.08,417.68L312.2,417.79L312.39,418.11L315.95,418.01L316.14,418.29L317.26,418.19L317.45,418.36L318.95,418.12L319.14,418.52L352.12,419.84L352.3,419.83L359.99,419.89L360.17,419.88L562,419.92" style="vector-effect: non-scaling-stroke; fill: none; stroke: rgb(255, 127, 14); stroke-opacity: 1; stroke-width: 2px; opacity: 1;"/><g class="points"/></g><g class="trace scatter tracec017b5" style="stroke-miterlimit: 2; opacity: 1;"><path class="js-line" d="M0,415.79L0.94,416.2L1.12,415.33L2.06,416.21L2.25,416.21L4.68,416.69L4.87,416.63L6.75,417.45L6.93,417.18L11.99,417.82L12.18,417.78L50.6,419.63L50.78,419.58L54.53,419.66L54.72,419.63L59.78,419.68L59.97,419.66L74.77,419.77L74.96,419.76L89.58,419.78L89.76,419.78L104.57,419.82L104.75,419.82L118.81,419.82L119,419.83L125.56,419.84L125.74,419.84L132.86,419.84L133.05,419.83L140.17,419.84L140.36,419.83L147.48,419.84L147.67,419.84L162.28,419.87L162.47,419.86L562,419.91" style="vector-effect: non-scaling-stroke; fill: none; stroke: rgb(44, 160, 44); stroke-opacity: 1; stroke-width: 2px; opacity: 1;"/><g class="points"/></g><g class="trace scatter trace724669" style="stroke-miterlimit: 2; opacity: 1;"><path class="js-line" d="M0,228.69L0.19,229.2L0.37,235.46L0.94,243.69L1.12,197.26L1.31,233.73L1.5,240.16L1.69,226.23L1.87,225.1L3.19,248.05L3.37,231.2L3.56,245.29L4.12,239.42L4.31,227.17L5.25,243.08L5.43,241.74L5.62,220.95L6,249.02L6.18,266.84L6.37,251.48L6.75,276.11L6.93,267.85L7.87,236.95L8.06,243.26L8.43,265.68L8.81,255.83L8.99,256.75L9.37,265.08L9.56,229.29L9.93,269.46L10.49,265.51L10.68,268.2L11.06,267.89L11.24,260.87L11.62,259.77L11.81,267.43L11.99,268.36L12.18,253.08L12.74,284.72L12.93,277.34L13.12,259.29L14.24,287.32L14.43,286.65L14.99,272.44L15.18,281.73L15.37,283.65L15.74,290.6L15.93,282.03L16.12,280.66L16.49,296.73L16.87,290.75L17.05,290.55L17.43,291.01L17.62,293.19L17.8,299.09L17.99,275.62L18.74,288.25L18.93,294.97L19.3,290.8L19.49,291.6L19.68,301.19L20.24,303.43L20.43,280.7L20.61,297.92L20.8,299.88L20.99,299.62L21.18,285.58L22.11,308.24L22.3,301.89L22.49,302.81L23.05,300.24L23.24,314.41L23.42,308.59L23.61,297.1L24.74,322.12L24.92,308.54L25.3,307.07L25.86,319.07L26.05,311.69L26.42,305.05L26.61,305.6L26.8,313.6L26.98,310.47L27.17,320.37L27.36,309.5L27.73,324.28L27.92,331.53L28.48,319L28.67,334.97L28.86,323.44L29.42,330.14L29.61,331.32L30.17,319.23L30.36,320.43L30.55,329.65L30.92,320.63L31.11,324.84L31.3,334.48L31.67,325.2L32.23,325.54L32.42,327.64L32.61,327.91L32.79,329.68L33.17,328.13L33.54,339.76L33.73,334.89L33.92,325.08L34.29,318.59L34.48,332.52L34.67,327.3L34.86,328.54L35.79,339.16L35.98,340.82L36.73,332.98L36.92,336.58L37.29,344.12L37.67,344.07L37.85,333.78L38.04,345.42L38.6,342.68L38.79,344.35L38.98,354.4L39.35,340.35L39.54,342.56L39.92,339.07L40.29,349.47L40.48,345.38L41.04,352.66L41.41,349.17L41.6,349.78L42.16,348.94L42.54,355.35L42.73,351.99L43.1,359.32L43.48,353.7L43.66,349.66L44.23,359.75L44.41,350.33L44.79,352.49L44.97,348.76L45.16,349.83L45.35,351.99L45.54,352.23L45.72,359.49L46.29,357.24L46.47,358.52L46.66,362.53L47.97,355.84L48.16,360.03L48.91,367.11L49.1,359.42L50.03,366.88L50.22,368.32L50.97,362.61L51.16,364.08L51.35,365.7L51.53,365.37L51.72,367.05L52.1,360.39L52.28,366.52L52.66,370.65L53.03,368.02L53.22,368.56L53.41,374.79L53.97,374.2L54.16,373.57L54.34,375.13L54.53,368.12L54.91,379.17L55.28,372.84L55.47,363.43L56.59,375.76L56.78,373.21L56.97,373.23L57.16,378.01L57.34,367.02L57.91,374.17L58.09,374.12L59.4,379.8L59.59,376.01L59.78,379.44L60.34,378.2L60.53,375.34L61.47,379.35L61.65,379.15L61.84,374.44L62.22,381.05L62.4,385.32L62.59,381.78L62.96,387.41L63.15,385.82L64.09,378.92L64.28,380.39L64.65,385.68L65.03,383.47L65.21,383.83L65.59,385.7L65.78,377.82L66.15,386.92L66.71,386.23L66.9,386.81L67.28,386.93L67.46,385.4L67.84,385.22L68.02,386.94L68.21,387.22L68.4,383.81L68.96,391.04L69.15,389.45L69.34,385.53L70.46,392.02L70.65,391.89L71.21,389.04L71.4,391.16L71.96,393L72.15,391.3L72.33,390.98L72.52,393.42L72.71,394.56L73.27,393.46L73.46,393.52L73.83,394.03L74.02,395.29L74.21,390.47L74.77,391.9L74.96,393.23L75.9,396.22L76.08,394.93L76.27,394.9L76.46,396.8L76.64,392.29L77.21,396.02L77.39,393.35L78.89,398.07L79.08,396.71L79.27,396.73L79.46,399.61L79.83,396.3L80.02,397.37L80.21,398.68L80.95,401.43L81.14,398.85L81.52,398.6L82.08,401.03L82.27,399.62L82.64,398.42L82.83,398.58L83.02,400.08L83.39,401.49L83.58,399.44L83.77,400.6L84.14,403.72L84.52,402.02L84.7,401.44L84.89,404.44L85.45,403.34L85.64,403.72L85.83,403.92L86.01,403.04L86.2,401.86L86.39,401.7L86.58,401.98L86.76,403.87L87.14,402.14L87.33,402.94L87.51,404.79L88.45,403.3L88.64,403.66L89.01,404.1L89.2,404.87L89.39,403.85L89.58,404.76L89.76,406.09L90.51,402.48L90.7,405.01L90.89,404.04L91.07,404.26L91.26,406.16L91.64,405.64L92.01,406.27L92.2,406.61L92.95,405.33L93.14,406L93.89,407.33L94.07,405.56L94.45,407.7L94.82,407.2L95.01,407.49L95.2,409.35L95.57,407.02L95.76,407.37L96.13,406.88L96.51,408.64L96.7,407.96L98.01,409.27L98.2,409.2L98.38,408.79L98.57,409.12L98.76,409.86L98.94,409.38L99.13,410.16L99.32,410.54L99.88,409.14L100.07,409.39L100.26,409.93L100.44,410.77L100.82,409.09L101.01,409.69L101.19,409.1L101.76,409.75L101.94,410.86L102.51,410.49L102.69,410.77L102.88,411.49L104.19,410.49L104.38,411.22L105.13,412.34L105.32,411.23L106.25,412.46L106.44,412.64L107.19,411.91L107.38,412.11L107.57,412.3L108.13,412.38L108.31,411.62L109.06,413.15L109.25,412.84L109.44,412.93L110.19,413.78L110.38,413.72L110.56,413.92L110.75,412.89L111.13,414.57L111.5,413.68L111.69,412.31L112.81,414.15L113,413.8L113.19,413.83L113.56,413.06L113.94,414.53L114.12,414.06L116.56,414.77L116.75,414.37L117.68,414.97L117.87,414.97L118.06,414.38L118.43,415.26L118.62,415.86L118.81,415.38L119.37,415.97L119.56,415.57L120.31,415.09L120.5,415.28L120.68,415.76L121.81,416L121.99,415.06L123.12,416.21L123.31,416.18L124.43,416.3L124.62,415.87L125.18,416.81L125.56,416.13L125.74,416.27L126.68,416.99L126.87,416.97L128.55,416.89L128.74,417.19L130.24,417.44L130.43,416.92L132.68,417.7L132.86,417.25L133.8,417.45L133.99,417.43L135.3,417.72L135.49,417.74L136.61,418.23L136.8,417.99L138.3,418.24L138.49,418.1L139.98,418.24L140.17,418.37L141.48,418.46L141.67,418.47L144.48,418.61L144.67,418.5L155.91,419.1L156.1,419.07L176.34,419.5L176.53,419.47L184.4,419.62L184.58,419.61L196.39,419.71L196.58,419.73L201.26,419.72L201.45,419.73L216.63,419.78L216.82,419.78L231.06,419.83L231.25,419.82L245.11,419.85L245.3,419.84L259.17,419.85L259.36,419.86L562,419.91" style="vector-effect: non-scaling-stroke; fill: none; stroke: rgb(214, 39, 40); stroke-opacity: 1; stroke-width: 2px; opacity: 1;"/><g class="points"/></g><g class="trace scatter trace7e7f41" style="stroke-miterlimit: 2; opacity: 1;"><path class="js-line" d="M0,419.81L562,419.97" style="vector-effect: non-scaling-stroke; fill: none; stroke: rgb(148, 103, 189); stroke-opacity: 1; stroke-width: 2px; opacity: 1;"/><g class="points"/></g><g class="trace scatter traceff3540" style="stroke-miterlimit: 2; opacity: 1;"><path class="js-line" d="M0,419.81L562,419.97" style="vector-effect: non-scaling-stroke; fill: none; stroke: rgb(140, 86, 75); stroke-opacity: 1; stroke-width: 2px; opacity: 1;"/><g class="points"/></g><g class="trace scatter trace7d10a1" style="stroke-miterlimit: 2; opacity: 1;"><path class="js-line" d="M0,419.81L562,419.97" style="vector-effect: non-scaling-stroke; fill: none; stroke: rgb(227, 119, 194); stroke-opacity: 1; stroke-width: 2px; opacity: 1;"/><g class="points"/></g><g class="trace scatter traceea0d56" style="stroke-miterlimit: 2; opacity: 1;"><path class="js-line" d="M0,419.81L562,419.94" style="vector-effect: non-scaling-stroke; fill: none; stroke: rgb(127, 127, 127); stroke-opacity: 1; stroke-width: 2px; opacity: 1;"/><g class="points"/></g></g></g><g class="overplot"/><path class="xlines-above crisp" transform="translate(80,100)" d="M-1,420.5H562" style="fill: none; stroke-width: 1px; stroke: rgb(0, 0, 0); stroke-opacity: 0;"/><path class="ylines-above crisp" transform="translate(80,100)" d="M-0.5,0V420" style="fill: none; stroke-width: 1px; stroke: rgb(0, 0, 0); stroke-opacity: 0;"/><g class="overlines-above"/><g class="xaxislayer-above" transform="translate(80,100)"><g class="xtick"><text text-anchor="middle" x="0" y="433" transform="translate(0,0)" style="font-family: 'Open Sans', verdana, arial, sans-serif; font-size: 12px; fill: rgb(68, 68, 68); fill-opacity: 1; white-space: pre;">0</text></g><g class="xtick"><text text-anchor="middle" x="0" y="433" transform="translate(93.7,0)" style="font-family: 'Open Sans', verdana, arial, sans-serif; font-size: 12px; fill: rgb(68, 68, 68); fill-opacity: 1; white-space: pre;">500</text></g><g class="xtick"><text text-anchor="middle" x="0" y="433" transform="translate(187.4,0)" style="font-family: 'Open Sans', verdana, arial, sans-serif; font-size: 12px; fill: rgb(68, 68, 68); fill-opacity: 1; white-space: pre;">1000</text></g><g class="xtick"><text text-anchor="middle" x="0" y="433" transform="translate(281.09,0)" style="font-family: 'Open Sans', verdana, arial, sans-serif; font-size: 12px; fill: rgb(68, 68, 68); fill-opacity: 1; white-space: pre;">1500</text></g><g class="xtick"><text text-anchor="middle" x="0" y="433" transform="translate(374.79,0)" style="font-family: 'Open Sans', verdana, arial, sans-serif; font-size: 12px; fill: rgb(68, 68, 68); fill-opacity: 1; white-space: pre;">2000</text></g><g class="xtick"><text text-anchor="middle" x="0" y="433" transform="translate(468.49,0)" style="font-family: 'Open Sans', verdana, arial, sans-serif; font-size: 12px; fill: rgb(68, 68, 68); fill-opacity: 1; white-space: pre;">2500</text></g></g><g class="yaxislayer-above" transform="translate(80,100)"><g class="ytick"><text text-anchor="end" x="-1" y="4.199999999999999" transform="translate(0,420)" style="font-family: 'Open Sans', verdana, arial, sans-serif; font-size: 12px; fill: rgb(68, 68, 68); fill-opacity: 1; white-space: pre;">0</text></g><g class="ytick"><text text-anchor="end" x="-1" y="4.199999999999999" transform="translate(0,364)" style="font-family: 'Open Sans', verdana, arial, sans-serif; font-size: 12px; fill: rgb(68, 68, 68); fill-opacity: 1; white-space: pre;">200</text></g><g class="ytick"><text text-anchor="end" x="-1" y="4.199999999999999" transform="translate(0,308)" style="font-family: 'Open Sans', verdana, arial, sans-serif; font-size: 12px; fill: rgb(68, 68, 68); fill-opacity: 1; white-space: pre;">400</text></g><g class="ytick"><text text-anchor="end" x="-1" y="4.199999999999999" transform="translate(0,252)" style="font-family: 'Open Sans', verdana, arial, sans-serif; font-size: 12px; fill: rgb(68, 68, 68); fill-opacity: 1; white-space: pre;">600</text></g><g class="ytick"><text text-anchor="end" x="-1" y="4.199999999999999" transform="translate(0,196)" style="font-family: 'Open Sans', verdana, arial, sans-serif; font-size: 12px; fill: rgb(68, 68, 68); fill-opacity: 1; white-space: pre;">800</text></g><g class="ytick"><text text-anchor="end" x="-1" y="4.199999999999999" transform="translate(0,140)" style="font-family: 'Open Sans', verdana, arial, sans-serif; font-size: 12px; fill: rgb(68, 68, 68); fill-opacity: 1; white-space: pre;">1000</text></g><g class="ytick"><text text-anchor="end" x="-1" y="4.199999999999999" transform="translate(0,84)" style="font-family: 'Open Sans', verdana, arial, sans-serif; font-size: 12px; fill: rgb(68, 68, 68); fill-opacity: 1; white-space: pre;">1200</text></g><g class="ytick"><text text-anchor="end" x="-1" y="4.199999999999999" transform="translate(0,28)" style="font-family: 'Open Sans', verdana, arial, sans-serif; font-size: 12px; fill: rgb(68, 68, 68); fill-opacity: 1; white-space: pre;">1400</text></g></g><g class="overaxes-above"/></g></g><g class="ternarylayer"/><g class="geolayer"/><g class="layer-above"><g class="imagelayer"/><g class="shapelayer"/></g><g class="pielayer"/><g class="glimages"/><defs id="topdefs-7ca640"><g class="clips"/><clipPath id="legend7ca640"><rect width="135" height="162" x="0" y="0"/></clipPath></defs><g class="infolayer"><g class="g-gtitle"><text class="gtitle" x="400" y="50" text-anchor="middle" style="font-family: 'Open Sans', verdana, arial, sans-serif; font-size: 17px; fill: rgb(68, 68, 68); opacity: 1; font-weight: normal; white-space: pre;">Step loss with different weight initialization</text></g><g class="legend" pointer-events="all" transform="translate(653.24, 100)"><rect class="bg" shape-rendering="crispEdges" width="135" height="162" x="0" y="0" style="stroke: rgb(68, 68, 68); stroke-opacity: 1; fill: rgb(255, 255, 255); fill-opacity: 1; stroke-width: 0px;"/><g class="scrollbox" transform="translate(0, 0)" clip-path="url(#legend7ca640)"><g class="groups"><g class="traces" transform="translate(0, 14.5)" style="opacity: 1;"><g class="layers" style="opacity: 1;"><g class="legendfill"/><g class="legendlines"><path class="js-line" d="M5,0h30" style="fill: none; stroke: rgb(31, 119, 180); stroke-opacity: 1; stroke-width: 2px;"/></g><g class="legendsymbols"><g class="legendpoints"/></g></g><text class="legendtext user-select-none" text-anchor="start" x="40" y="4.680000000000001" style="font-family: 'Open Sans', verdana, arial, sans-serif; font-size: 12px; fill: rgb(68, 68, 68); fill-opacity: 1; white-space: pre;">zeros</text><rect class="legendtoggle" pointer-events="all" x="0" y="-9.5" width="175" height="19" style="cursor: pointer; fill: rgb(0, 0, 0); fill-opacity: 0;"/></g><g class="traces" transform="translate(0, 33.5)" style="opacity: 1;"><g class="layers" style="opacity: 1;"><g class="legendfill"/><g class="legendlines"><path class="js-line" d="M5,0h30" style="fill: none; stroke: rgb(255, 127, 14); stroke-opacity: 1; stroke-width: 2px;"/></g><g class="legendsymbols"><g class="legendpoints"/></g></g><text class="legendtext user-select-none" text-anchor="start" x="40" y="4.680000000000001" style="font-family: 'Open Sans', verdana, arial, sans-serif; font-size: 12px; fill: rgb(68, 68, 68); fill-opacity: 1; white-space: pre;">ones</text><rect class="legendtoggle" pointer-events="all" x="0" y="-9.5" width="175" height="19" style="cursor: pointer; fill: rgb(0, 0, 0); fill-opacity: 0;"/></g><g class="traces" transform="translate(0, 52.5)" style="opacity: 1;"><g class="layers" style="opacity: 1;"><g class="legendfill"/><g class="legendlines"><path class="js-line" d="M5,0h30" style="fill: none; stroke: rgb(44, 160, 44); stroke-opacity: 1; stroke-width: 2px;"/></g><g class="legendsymbols"><g class="legendpoints"/></g></g><text class="legendtext user-select-none" text-anchor="start" x="40" y="4.680000000000001" style="font-family: 'Open Sans', verdana, arial, sans-serif; font-size: 12px; fill: rgb(68, 68, 68); fill-opacity: 1; white-space: pre;">random_normal</text><rect class="legendtoggle" pointer-events="all" x="0" y="-9.5" width="175" height="19" style="cursor: pointer; fill: rgb(0, 0, 0); fill-opacity: 0;"/></g><g class="traces" transform="translate(0, 71.5)" style="opacity: 1;"><g class="layers" style="opacity: 1;"><g class="legendfill"/><g class="legendlines"><path class="js-line" d="M5,0h30" style="fill: none; stroke: rgb(214, 39, 40); stroke-opacity: 1; stroke-width: 2px;"/></g><g class="legendsymbols"><g class="legendpoints"/></g></g><text class="legendtext user-select-none" text-anchor="start" x="40" y="4.680000000000001" style="font-family: 'Open Sans', verdana, arial, sans-serif; font-size: 12px; fill: rgb(68, 68, 68); fill-opacity: 1; white-space: pre;">random_uniform</text><rect class="legendtoggle" pointer-events="all" x="0" y="-9.5" width="175" height="19" style="cursor: pointer; fill: rgb(0, 0, 0); fill-opacity: 0;"/></g><g class="traces" transform="translate(0, 90.5)" style="opacity: 1;"><g class="layers" style="opacity: 1;"><g class="legendfill"/><g class="legendlines"><path class="js-line" d="M5,0h30" style="fill: none; stroke: rgb(148, 103, 189); stroke-opacity: 1; stroke-width: 2px;"/></g><g class="legendsymbols"><g class="legendpoints"/></g></g><text class="legendtext user-select-none" text-anchor="start" x="40" y="4.680000000000001" style="font-family: 'Open Sans', verdana, arial, sans-serif; font-size: 12px; fill: rgb(68, 68, 68); fill-opacity: 1; white-space: pre;">glorot_normal</text><rect class="legendtoggle" pointer-events="all" x="0" y="-9.5" width="175" height="19" style="cursor: pointer; fill: rgb(0, 0, 0); fill-opacity: 0;"/></g><g class="traces" transform="translate(0, 109.5)" style="opacity: 1;"><g class="layers" style="opacity: 1;"><g class="legendfill"/><g class="legendlines"><path class="js-line" d="M5,0h30" style="fill: none; stroke: rgb(140, 86, 75); stroke-opacity: 1; stroke-width: 2px;"/></g><g class="legendsymbols"><g class="legendpoints"/></g></g><text class="legendtext user-select-none" text-anchor="start" x="40" y="4.680000000000001" style="font-family: 'Open Sans', verdana, arial, sans-serif; font-size: 12px; fill: rgb(68, 68, 68); fill-opacity: 1; white-space: pre;">glorot_uniform</text><rect class="legendtoggle" pointer-events="all" x="0" y="-9.5" width="175" height="19" style="cursor: pointer; fill: rgb(0, 0, 0); fill-opacity: 0;"/></g><g class="traces" transform="translate(0, 128.5)" style="opacity: 1;"><g class="layers" style="opacity: 1;"><g class="legendfill"/><g class="legendlines"><path class="js-line" d="M5,0h30" style="fill: none; stroke: rgb(227, 119, 194); stroke-opacity: 1; stroke-width: 2px;"/></g><g class="legendsymbols"><g class="legendpoints"/></g></g><text class="legendtext user-select-none" text-anchor="start" x="40" y="4.680000000000001" style="font-family: 'Open Sans', verdana, arial, sans-serif; font-size: 12px; fill: rgb(68, 68, 68); fill-opacity: 1; white-space: pre;">orthogonal</text><rect class="legendtoggle" pointer-events="all" x="0" y="-9.5" width="175" height="19" style="cursor: pointer; fill: rgb(0, 0, 0); fill-opacity: 0;"/></g><g class="traces" transform="translate(0, 147.5)" style="opacity: 1;"><g class="layers" style="opacity: 1;"><g class="legendfill"/><g class="legendlines"><path class="js-line" d="M5,0h30" style="fill: none; stroke: rgb(127, 127, 127); stroke-opacity: 1; stroke-width: 2px;"/></g><g class="legendsymbols"><g class="legendpoints"/></g></g><text class="legendtext user-select-none" text-anchor="start" x="40" y="4.680000000000001" style="font-family: 'Open Sans', verdana, arial, sans-serif; font-size: 12px; fill: rgb(68, 68, 68); fill-opacity: 1; white-space: pre;">identity</text><rect class="legendtoggle" pointer-events="all" x="0" y="-9.5" width="175" height="19" style="cursor: pointer; fill: rgb(0, 0, 0); fill-opacity: 0;"/></g></g></g><rect class="scrollbar" rx="20" ry="2" width="0" height="0" style="fill: rgb(128, 139, 164); fill-opacity: 1;"/></g><g class="g-xtitle"><text class="xtitle" x="361" y="572" text-anchor="middle" style="font-family: 'Open Sans', verdana, arial, sans-serif; font-size: 14px; fill: rgb(68, 68, 68); opacity: 1; font-weight: normal; white-space: pre;">steps</text></g><g class="g-ytitle"><text class="ytitle" transform="rotate(-90,42,310) translate(0, 0)" x="42" y="310" text-anchor="middle" style="font-family: 'Open Sans', verdana, arial, sans-serif; font-size: 14px; fill: rgb(68, 68, 68); opacity: 1; font-weight: normal; white-space: pre;">loss</text></g></g></svg>